<svg xmlns="http://www.w3.org/2000/svg" xmlns:xlink="http://www.w3.org/1999/xlink" width="1152.44" height="296.804" viewBox="64.3 256.998 1152.44 296.804"><path fill="#593B4F" d="M316.4 404.9c.2 30-24.1 54.6-54.1 54.699-14.4.101-28-5.399-38.3-15.5-4.8-4.699-8.6-10-11.3-15.899-2.7 5.899-6.5 11.3-11.2 16.1-10.2 10.2-23.8 15.9-38.2 15.9h-.5v.1l-54.1.5-.6-109 54.8-.3c14.4-.1 28 5.3 38.3 15.4 4.8 4.699 8.6 10 11.3 15.8 2.7-5.9 6.4-11.3 11.1-16.101 10.2-10.199 23.7-15.8 38.1-15.899 30.1-.1 54.6 24.2 54.7 54.2zM107.1 301C79.3 329.2 64 366.6 64.3 406.2c.2 39.7 15.8 76.8 44 104.7 28.1 27.899 65.4 43.1 105 42.899 39.6-.2 76.7-15.899 104.6-44 27.8-28.2 43.1-65.6 42.8-105.2-.2-39.699-15.8-76.8-44-104.7-28.1-27.9-65.4-43.1-105-42.9-39.6.201-76.8 15.901-104.6 44.001z"/><defs><path id="a" d="M316.4 404.9c.2 30-24.1 54.6-54.1 54.699-14.4.101-28-5.399-38.3-15.5-4.8-4.699-8.6-10-11.3-15.899-2.7 5.899-6.5 11.3-11.2 16.1-10.2 10.2-23.8 15.9-38.2 15.9h-.5v.1l-54.1.5-.6-109 54.8-.3c14.4-.1 28 5.3 38.3 15.4 4.8 4.699 8.6 10 11.3 15.8 2.7-5.9 6.4-11.3 11.1-16.101 10.2-10.199 23.7-15.8 38.1-15.899 30.1-.1 54.6 24.2 54.7 54.2zM107.1 301C79.3 329.2 64 366.6 64.3 406.2c.2 39.7 15.8 76.8 44 104.7 28.1 27.899 65.4 43.1 105 42.899 39.6-.2 76.7-15.899 104.6-44 27.8-28.2 43.1-65.6 42.8-105.2-.2-39.699-15.8-76.8-44-104.7-28.1-27.9-65.4-43.1-105-42.9-39.6.201-76.8 15.901-104.6 44.001z"/></defs><use xlink:href="#a" overflow="visible" fill="#593B4F"/><clipPath id="b"><use xlink:href="#a" overflow="visible"/></clipPath><path clip-path="url(#b)" fill="#593B4F" d="M52.8 245.6h319.3v319.8H52.8V245.6z"/><defs><path id="c" d="M263.6 439.8c-9.2 0-17.8-3.5-24.4-9.899-6.5-6.4-10.2-15-10.4-24.101v-.8c.1-9.2 3.7-17.8 10.2-24.3s15.1-10.101 24.2-10.2c19.1-.1 34.7 15.4 34.8 34.5s-15.4 34.7-34.4 34.8"/></defs><use xlink:href="#c" overflow="visible" fill="#593B4F"/><clipPath id="d"><use xlink:href="#c" overflow="visible"/></clipPath><path clip-path="url(#d)" fill="#593B4F" d="M217.4 359.1h92v92.1h-92v-92.1z"/><g><defs><path id="e" d="M164.8 440.3c-19.1.101-34.7-15.399-34.8-34.5-.1-19.1 15.3-34.7 34.4-34.8 9.1-.1 17.8 3.5 24.3 9.9 6.5 6.399 10.2 15 10.4 24.1v1.3c-.1 8.9-3.8 17.7-10.1 24-6.3 6.5-14.9 10-24.2 10"/></defs><use xlink:href="#e" overflow="visible" fill="#593B4F"/><clipPath id="f"><use xlink:href="#e" overflow="visible"/></clipPath><path clip-path="url(#f)" fill="#593B4F" d="M118.6 359.6h92v92.1h-92v-92.1z"/></g><g fill="#593B4F"><path d="M484.453 497.251c29.276 0 52.418-9.759 68.311-19.517 10.315-6.135 15.056-14.777 15.056-27.324v-47.398c0-11.989-9.479-21.469-21.469-21.469h-49.07c-10.317 0-18.682 8.364-18.682 18.681s8.364 18.401 18.681 18.401h28.996v27.882c-10.873 7.807-24.814 11.71-40.428 11.71-34.573 0-59.109-26.208-59.109-61.896v-.558c0-33.18 24.815-60.782 56.042-60.782 18.402 0 30.95 5.02 42.66 13.384 3.065 2.23 6.97 4.461 13.103 4.461 11.71 0 21.19-9.48 21.19-21.19 0-8.364-4.74-14.22-8.923-17.286-17.565-12.268-37.082-18.96-66.637-18.96-59.109 0-102.325 45.447-102.325 100.932v.558c0 57.712 41.823 100.371 102.604 100.371zM604.4 474.388c0 11.71 9.48 21.19 21.19 21.19s21.19-9.48 21.19-21.19v-39.592c0-30.112 11.988-46.562 33.457-51.58 8.644-1.953 15.893-8.645 15.893-19.797 0-11.989-7.528-20.633-20.633-20.633-12.546 0-22.584 13.384-28.718 27.882v-6.69c0-11.71-9.479-21.19-21.189-21.19s-21.19 9.48-21.19 21.19v110.41zM720.38 309.33c0 12.268 10.315 20.074 23.698 20.074s23.7-7.807 23.7-20.074v-.558c0-12.269-10.317-19.796-23.7-19.796s-23.699 7.528-23.699 19.796v.558zm2.508 165.058c0 11.71 9.48 21.19 21.19 21.19s21.19-9.48 21.19-21.19v-110.41c0-11.71-9.48-21.19-21.19-21.19s-21.19 9.48-21.19 21.19v110.41zm232.737-164.501c0-11.71-9.479-21.19-21.189-21.19s-21.19 9.48-21.19 21.19v54.09c-10.037-11.989-23.978-22.306-46.563-22.306-35.409 0-68.03 27.324-68.03 77.232v.558c0 49.907 33.18 77.231 68.03 77.231 22.026 0 36.246-10.316 46.563-24.257v1.952c0 11.71 9.48 21.19 21.19 21.19s21.19-9.48 21.19-21.19v-164.5zm-78.069 67.752c19.796 0 36.246 16.45 36.246 41.265v.558c0 24.814-16.45 41.265-36.246 41.265-19.796 0-36.524-16.45-36.524-41.265v-.558c0-25.094 16.728-41.265 36.524-41.265zm118.157 96.749c0 11.71 9.48 21.19 21.19 21.19s21.19-9.48 21.19-21.19v-164.5c0-11.71-9.48-21.19-21.19-21.19s-21.19 9.48-21.19 21.19v164.5zm116.75-66.916c3.346-19.238 14.777-31.785 32.343-31.785 17.844 0 28.997 12.825 31.506 31.785h-63.849zm88.384 71.656c3.066-2.788 5.576-6.97 5.576-12.547 0-9.479-6.97-16.729-16.45-16.729-4.46 0-7.249 1.115-10.316 3.346-8.644 6.413-18.4 10.037-30.112 10.037-18.959 0-32.342-10.037-36.524-29.275h83.923c11.153 0 19.797-8.086 19.797-20.354 0-30.948-22.027-71.935-71.935-71.935-43.495 0-73.886 35.131-73.886 77.79v.558c0 45.726 33.18 77.231 78.067 77.231 21.748.001 38.756-6.97 51.86-18.122z"/></g></svg>